<svg xmlns="http://www.w3.org/2000/svg" xmlns:xlink="http://www.w3.org/1999/xlink" viewBox="0,0,256,256" width="128px" height="128px" fill-rule="nonzero"><g fill="#ffffff" fill-rule="nonzero" stroke="none" stroke-width="1" stroke-linecap="butt" stroke-linejoin="miter" stroke-miterlimit="10" stroke-dasharray="" stroke-dashoffset="0" font-family="none" font-weight="none" font-size="none" text-anchor="none" style="mix-blend-mode: normal"><g transform="scale(4,4)"><path d="M24.5,4c-13.51,0 -24.5,8.748 -24.5,19.5c0,6.239 3.73625,12.07847 10.03125,15.73047c-0.216,2.761 -0.81053,5.47522 -1.76953,8.07422c-0.135,0.365 -0.04553,0.77673 0.23047,1.05273c0.19,0.191 0.44603,0.29297 0.70703,0.29297c0.116,0 0.23566,-0.0205 0.34766,-0.0625c3.729,-1.373 7.11055,-3.38247 10.06055,-5.98047c1.37008,0.2228 2.77122,0.33035 4.17969,0.36328c2.45501,7.11565 10.42655,12.0293 19.71289,12.0293c1.6,0 3.18761,-0.14836 4.72461,-0.44336c2.88,2.469 6.15881,4.3917 9.75781,5.7207c0.114,0.041 0.23166,0.0625 0.34766,0.0625c0.261,0 0.51798,-0.10197 0.70898,-0.29297c0.276,-0.277 0.36452,-0.69064 0.22852,-1.05664c-1.003,-2.692 -1.60306,-5.52188 -1.78906,-8.42187c4.152,-3.104 6.52148,-7.47436 6.52148,-12.06836c0,-7.49222 -6.14389,-13.92526 -15.0293,-15.88672c-0.59048,-10.3349 -11.36183,-18.61328 -24.4707,-18.61328zM24.5,6c12.351,0 22.443,7.81678 22.5,17.42578h0.01563c-0.00182,0.025 -0.01562,0.04949 -0.01562,0.07422c0,9.649 -10.089,17.5 -22.5,17.5c-1.691,0 -3.38148,-0.14936 -5.02148,-0.44336c-0.303,-0.054 -0.61961,0.03514 -0.84961,0.24414c-2.321,2.107 -4.93683,3.81847 -7.79883,5.10547c0.683,-2.335 1.09828,-4.73973 1.23828,-7.17773c0.022,-0.386 -0.17858,-0.75055 -0.51758,-0.93555c-5.98,-3.271 -9.55078,-8.61297 -9.55078,-14.29297c0,-9.649 10.094,-17.5 22.5,-17.5zM25.35938,9c-1.814,0 -3.60527,0.17272 -5.32227,0.51172c-0.542,0.107 -0.89506,0.63183 -0.78906,1.17383c0.094,0.477 0.51247,0.80664 0.98047,0.80664c0.064,0 0.12836,-0.00653 0.19336,-0.01953c1.591,-0.314 3.2515,-0.47266 4.9375,-0.47266c0.553,0 1,-0.448 1,-1c0,-0.552 -0.447,-1 -1,-1zM15.5293,10.92578c-0.12958,0.00073 -0.25927,0.02728 -0.38477,0.08203c-6.257,2.682 -10.14453,7.74956 -10.14453,13.22656c0,0.552 0.447,1 1,1c0.553,0 1,-0.447 1,-1c0,-4.734 3.33964,-8.99067 8.93164,-11.38867c0.507,-0.217 0.74144,-0.8045 0.52344,-1.3125c-0.16275,-0.381 -0.53705,-0.60963 -0.92578,-0.60742zM48.95508,24.64648c7.73799,1.85645 13.04492,7.42703 13.04492,13.85352c0,4.099 -2.23295,8.02072 -6.12695,10.76172c-0.279,0.196 -0.43787,0.52228 -0.42187,0.86328c0.117,2.549 0.53514,5.05084 1.24414,7.46484c-2.748,-1.238 -5.27144,-2.86738 -7.52344,-4.85937c-0.184,-0.163 -0.42011,-0.25 -0.66211,-0.25c-0.07,0 -0.13803,0.00648 -0.20703,0.02148c-1.555,0.331 -3.17073,0.49805 -4.80273,0.49805c-0.51289,0 -1.0225,-0.01934 -1.52734,-0.05273c-0.19904,-0.01317 -0.39422,-0.03842 -0.5918,-0.05664c-0.31699,-0.02923 -0.63448,-0.05568 -0.94727,-0.09766c-0.19589,-0.0263 -0.38796,-0.06255 -0.58203,-0.09375c-0.29658,-0.04767 -0.59279,-0.09542 -0.88477,-0.1543c-0.21191,-0.04273 -0.41962,-0.09408 -0.62891,-0.14258c-0.27966,-0.06482 -0.55938,-0.13017 -0.83398,-0.20508c-0.18765,-0.05119 -0.37151,-0.10827 -0.55664,-0.16406c-0.2819,-0.08496 -0.56222,-0.17216 -0.83789,-0.26758c-0.1934,-0.06693 -0.38408,-0.13898 -0.57422,-0.21094c-0.25855,-0.09786 -0.51541,-0.19971 -0.76758,-0.30664c-0.18645,-0.07906 -0.36996,-0.16025 -0.55273,-0.24414c-0.24612,-0.11297 -0.48941,-0.23003 -0.72852,-0.35156c-0.18071,-0.09186 -0.35866,-0.18658 -0.53516,-0.2832c-0.22849,-0.12507 -0.45272,-0.25387 -0.67383,-0.38672c-0.17768,-0.10676 -0.35464,-0.21453 -0.52734,-0.32617c-0.21212,-0.13714 -0.41876,-0.27952 -0.62305,-0.42383c-0.16202,-0.11445 -0.32358,-0.22882 -0.48047,-0.34766c-0.20848,-0.15792 -0.40837,-0.32285 -0.60742,-0.48828c-0.14097,-0.11716 -0.28386,-0.2327 -0.41992,-0.35352c-0.18409,-0.16347 -0.35842,-0.33394 -0.5332,-0.50391c-0.14409,-0.14011 -0.29215,-0.2775 -0.42969,-0.42187c-0.1692,-0.17764 -0.32543,-0.36299 -0.48437,-0.54688c-0.11607,-0.13427 -0.23724,-0.26486 -0.34766,-0.40234c-0.17733,-0.22082 -0.3397,-0.45087 -0.50195,-0.67969c-0.08185,-0.11545 -0.1721,-0.22635 -0.25,-0.34375c-0.17726,-0.26712 -0.33607,-0.54151 -0.49219,-0.81836c-0.04917,-0.08718 -0.10533,-0.17165 -0.15234,-0.25977c-0.19108,-0.35824 -0.3634,-0.72487 -0.51758,-1.09766c0.04217,-0.0019 0.08289,-0.00769 0.125,-0.00977c0.50122,-0.02467 0.99363,-0.07461 1.48633,-0.12305c0.46071,-0.04527 0.91664,-0.10056 1.36914,-0.16602c0.33495,-0.04844 0.66795,-0.099 0.99805,-0.1582c0.43783,-0.07856 0.8682,-0.17053 1.29688,-0.26758c0.31568,-0.0714 0.63102,-0.14151 0.94141,-0.22266c0.42734,-0.11183 0.84504,-0.2393 1.26172,-0.36914c0.3111,-0.09683 0.62294,-0.19031 0.92773,-0.29687c0.38447,-0.13457 0.75697,-0.28393 1.13086,-0.43359c0.31533,-0.12604 0.63399,-0.24639 0.94141,-0.38281c0.32682,-0.14527 0.63959,-0.30617 0.95703,-0.46289c0.33813,-0.16663 0.68084,-0.32671 1.00781,-0.50586c0.25809,-0.14168 0.50111,-0.29798 0.75195,-0.44727c0.35464,-0.21063 0.71712,-0.41733 1.05664,-0.64258c0.02353,-0.01565 0.0449,-0.03311 0.06836,-0.04883c5.00989,-3.34976 8.32006,-8.26028 8.72461,-13.78516zM39.86523,26.02734c-0.3893,-0.0105 -0.76575,0.20944 -0.9375,0.58594c-0.229,0.502 -0.00691,1.09522 0.49609,1.32422l1.81836,0.82813c0.134,0.061 0.27606,0.08984 0.41406,0.08984c0.38,0 0.74216,-0.21694 0.91016,-0.58594c0.229,-0.502 0.00691,-1.09522 -0.49609,-1.32422l-1.81836,-0.82812c-0.1255,-0.0575 -0.25695,-0.08634 -0.38672,-0.08984zM37.09961,29.7207c-0.25538,-0.016 -0.51711,0.06409 -0.72461,0.24609c-0.414,0.366 -0.45484,0.99711 -0.08984,1.41211l1.32227,1.50195c0.197,0.225 0.474,0.33789 0.75,0.33789c0.236,0 0.47211,-0.082 0.66211,-0.25c0.414,-0.366 0.45289,-0.99711 0.08789,-1.41211l-1.32227,-1.5c-0.182,-0.207 -0.43017,-0.31994 -0.68555,-0.33594zM32.97656,32.25c-0.12987,0.00256 -0.26072,0.03164 -0.38672,0.08789c-0.505,0.224 -0.73186,0.81436 -0.50586,1.31836l0.81445,1.82617c0.166,0.372 0.53106,0.59375 0.91406,0.59375c0.136,0 0.27525,-0.02789 0.40625,-0.08789c0.505,-0.224 0.73186,-0.81436 0.50586,-1.31836l-0.81445,-1.82617c-0.168,-0.37875 -0.54397,-0.60144 -0.93359,-0.59375zM28.19922,33.66406c-0.544,0.097 -0.90559,0.61616 -0.80859,1.16016l0.34961,1.9707c0.086,0.484 0.50642,0.82422 0.98242,0.82422c0.057,0 0.11578,-0.00563 0.17578,-0.01562c0.544,-0.097 0.90755,-0.6142 0.81055,-1.1582l-0.34961,-1.9707c-0.096,-0.543 -0.60816,-0.90955 -1.16016,-0.81055zM57,37c-0.553,0 -1,0.447 -1,1c0,1.269 -0.30239,2.5207 -0.90039,3.7207c-0.246,0.494 -0.04383,1.09384 0.45117,1.33984c0.142,0.071 0.29436,0.10352 0.44336,0.10352c0.367,0 0.72148,-0.20269 0.89648,-0.55469c0.736,-1.478 1.10938,-3.02938 1.10938,-4.60937c0,-0.553 -0.447,-1 -1,-1zM53.45703,44.52734c-0.2555,-0.0135 -0.5162,0.06991 -0.7207,0.25391c-2.31,2.076 -5.41333,3.21875 -8.73633,3.21875c-0.553,0 -1,0.447 -1,1c0,0.553 0.447,1 1,1c3.818,0 7.39627,-1.32447 10.07227,-3.73047c0.411,-0.369 0.44517,-1.00211 0.07617,-1.41211c-0.1855,-0.206 -0.43591,-0.31658 -0.69141,-0.33008z"></path></g></g></svg>