<svg xmlns="http://www.w3.org/2000/svg" xmlns:xlink="http://www.w3.org/1999/xlink" viewBox="0,0,256,256" width="128px" height="128px" fill-rule="nonzero"><g fill="#ffffff" fill-rule="nonzero" stroke="none" stroke-width="1" stroke-linecap="butt" stroke-linejoin="miter" stroke-miterlimit="10" stroke-dasharray="" stroke-dashoffset="0" font-family="none" font-weight="none" font-size="none" text-anchor="none" style="mix-blend-mode: normal"><g transform="scale(4,4)"><path d="M19,2c-1.65,0 -3,1.35 -3,3v7h-13c-1.65,0 -3,1.35 -3,3v34c0,1.65 1.35,3 3,3h23v2h-2.34375c-1.335,0 -2.59116,0.52084 -3.53516,1.46484l-2.82812,2.82813c-0.286,0.286 -0.3718,0.71584 -0.2168,1.08984c0.155,0.373 0.51983,0.61719 0.92383,0.61719h28c0.404,0 0.76883,-0.24419 0.92383,-0.61719c0.155,-0.374 0.0692,-0.80384 -0.2168,-1.08984l-2.82812,-2.82812c-0.944,-0.944 -2.19916,-1.46484 -3.53516,-1.46484h-2.34375v-2h23c1.65,0 3,-1.35 3,-3v-34c0,-1.65 -1.35,-3 -3,-3h-13v-7c0,-1.65 -1.35,-3 -3,-3zM19,4h26c0.55,0 1,0.45 1,1v7v2v2v2v20h-2c0,-0.552 -0.448,-1 -1,-1h-2c-0.552,0 -1,0.448 -1,1h-8h-8c0,-0.552 -0.448,-1 -1,-1h-2c-0.552,0 -1,0.448 -1,1h-2v-20v-2v-2v-2v-7c0,-0.55 0.45,-1 1,-1zM32,38c3.724,0 6.97236,-1.6405 8.69336,-4.0625c0.098,0.032 0.19764,0.0625 0.30664,0.0625h2c0.552,0 1,-0.448 1,-1c0,-0.552 -0.448,-1 -1,-1h-1.32812c0.207,-0.641 0.32813,-1.308 0.32813,-2c0,-0.692 -0.12112,-1.359 -0.32812,-2h1.32813c0.552,0 1,-0.448 1,-1c0,-0.552 -0.448,-1 -1,-1h-2c-0.109,0 -0.20864,0.0305 -0.30664,0.0625c-1.721,-2.422 -4.96936,-4.0625 -8.69336,-4.0625c-3.724,0 -6.97236,1.6405 -8.69336,4.0625c-0.098,-0.032 -0.19764,-0.0625 -0.30664,-0.0625h-2c-0.552,0 -1,0.448 -1,1c0,0.552 0.448,1 1,1h1.32813c-0.207,0.641 -0.32812,1.308 -0.32812,2c0,0.682 0.12108,1.351 0.33008,2h-1.33008c-0.552,0 -1,0.448 -1,1c0,0.552 0.448,1 1,1h2c0.105,0 0.20188,-0.03055 0.29688,-0.06055c0.518,0.736 1.17961,1.41028 1.97461,1.98828c1.841,1.337 4.23052,2.07227 6.72852,2.07227zM22,6c-0.552,0 -1,0.448 -1,1v5c0,0.552 0.448,1 1,1c0.552,0 1,-0.448 1,-1v-5c0,-0.552 -0.448,-1 -1,-1zM42,6c-0.552,0 -1,0.448 -1,1v5c0,0.552 0.448,1 1,1c0.552,0 1,-0.448 1,-1v-5c0,-0.552 -0.448,-1 -1,-1zM32,8c-2.206,0 -4,1.794 -4,4c0,2.206 1.794,4 4,4c2.206,0 4,-1.794 4,-4c0,-2.206 -1.794,-4 -4,-4zM32,10c1.103,0 2,0.897 2,2c0,1.103 -0.897,2 -2,2c-1.103,0 -2,-0.897 -2,-2c0,-1.103 0.897,-2 2,-2zM3,14h13v2h-14v-1c0,-0.55 0.45,-1 1,-1zM48,14h13c0.55,0 1,0.45 1,1v29h-5c-0.552,0 -1,0.448 -1,1c0,0.552 0.448,1 1,1h5v3c0,0.55 -0.45,1 -1,1h-23h-12h-23c-0.55,0 -1,-0.45 -1,-1v-3h51.08203c0.552,0 1,-0.448 1,-1c0,-0.552 -0.448,-1 -1,-1h-51.08203v-26h14v20h-5c-0.552,0 -1,0.448 -1,1c0,0.552 0.448,1 1,1h42c0.552,0 1,-0.448 1,-1c0,-0.552 -0.448,-1 -1,-1h-5v-20h3c0.55,0 1,-0.45 1,-1c0,-0.55 -0.45,-1 -1,-1h-3zM21,16c-0.552,0 -1,0.448 -1,1c0,0.552 0.448,1 1,1h2c0.552,0 1,-0.448 1,-1c0,-0.552 -0.448,-1 -1,-1zM41,16c-0.552,0 -1,0.448 -1,1c0,0.552 0.448,1 1,1h2c0.552,0 1,-0.448 1,-1c0,-0.552 -0.448,-1 -1,-1zM55,16c-0.552,0 -1,0.448 -1,1c0,0.552 0.448,1 1,1h4c0.552,0 1,-0.448 1,-1c0,-0.552 -0.448,-1 -1,-1zM21,21c-0.552,0 -1,0.448 -1,1c0,0.552 0.448,1 1,1h2c0.552,0 1,-0.448 1,-1c0,-0.552 -0.448,-1 -1,-1zM41,21c-0.552,0 -1,0.448 -1,1c0,0.552 0.448,1 1,1h2c0.552,0 1,-0.448 1,-1c0,-0.552 -0.448,-1 -1,-1zM32,24c4.411,0 8,2.691 8,6c0,3.309 -3.589,6 -8,6c-2.079,0 -4.05073,-0.60141 -5.55273,-1.69141c-1.578,-1.146 -2.44727,-2.67659 -2.44727,-4.30859c0,-3.309 3.589,-6 8,-6zM28,52h8v2h-8zM23.65625,56h2.34375h12h2.34375c0.79,0 1.56209,0.32091 2.12109,0.87891l1.12109,1.12109h-23.17188l1.12109,-1.12109c0.558,-0.558 1.33109,-0.87891 2.12109,-0.87891z"></path></g></g></svg>