<svg xmlns="http://www.w3.org/2000/svg" xmlns:xlink="http://www.w3.org/1999/xlink" viewBox="0,0,256,256" width="128px" height="128px" fill-rule="nonzero"><g fill="#ffffff" fill-rule="nonzero" stroke="none" stroke-width="1" stroke-linecap="butt" stroke-linejoin="miter" stroke-miterlimit="10" stroke-dasharray="" stroke-dashoffset="0" font-family="none" font-weight="none" font-size="none" text-anchor="none" style="mix-blend-mode: normal"><g transform="scale(4,4)"><path d="M31.17188,2.00781c-2.85937,0 -5.71875,1.08594 -7.89844,3.26562c-4.35547,4.35547 -4.35547,11.44141 0,15.80078l15.10156,15.09766c0.4375,0.4375 1.01563,0.67578 1.62891,0.67578c0.61719,0 1.19922,-0.23828 1.63672,-0.67578l15.08594,-15.09766c4.35547,-4.35937 4.35547,-11.44531 0,-15.80078c-4.35547,-4.35937 -11.44141,-4.35937 -15.80078,0l-0.92578,0.92578l-0.92578,-0.92578c-2.17969,-2.17969 -5.03906,-3.26562 -7.90234,-3.26562zM48.82813,4.00391c2.34766,0 4.69922,0.89453 6.48438,2.68359c3.57813,3.57422 3.57813,9.39453 0,12.96875l-15.08984,15.10547c-0.14453,0.14453 -0.28516,0.14453 -0.43359,0l-15.10156,-15.10547c-3.57812,-3.57422 -3.57812,-9.39453 0,-12.96875c1.78906,-1.78906 4.13672,-2.67969 6.48438,-2.67969c2.35156,0 4.69922,0.89063 6.48438,2.67969l0.93359,0.92969l-0.21875,0.21484c-0.39453,0.39063 -0.39453,1.02344 0,1.41406c0.19141,0.19531 0.44922,0.29297 0.70703,0.29297c0.25391,0 0.51172,-0.09766 0.70313,-0.29297l0.21875,-0.21875l2.34375,-2.33984c1.78516,-1.78906 4.13672,-2.68359 6.48438,-2.68359zM36.73047,9.88281c-0.25391,0 -0.51172,0.09766 -0.70703,0.29297l-1.65625,1.65625c-0.39062,0.39063 -0.39062,1.02344 0,1.41406c0.19531,0.19531 0.44922,0.29297 0.70703,0.29297c0.25781,0 0.51172,-0.09766 0.70703,-0.29297l1.65625,-1.65625c0.39063,-0.39062 0.39063,-1.02344 0,-1.41406c-0.19531,-0.19531 -0.45312,-0.29297 -0.70703,-0.29297zM20.29688,35.32422c-0.60547,-0.01562 -1.21094,0.01172 -1.81641,0.08203l-11.83203,1.39063c-1.50781,0.17969 -2.64844,1.46094 -2.64844,2.98438v12.65625c0,0.93359 0.42188,1.79297 1.15625,2.36719c0.73047,0.57031 1.66797,0.76953 2.57031,0.54297l6.5625,-1.63672c1.67188,-0.41406 3.43359,-0.20703 4.96094,0.59766l12.58594,6.62891c1.3125,0.69141 2.75,1.03516 4.19141,1.03516c1.42188,0 2.84375,-0.33203 4.14453,-1.00781l21.30078,-11.04687c1.55859,-0.80859 2.52734,-2.39844 2.52734,-4.16406c0,-1.45703 -0.66406,-2.80469 -1.81641,-3.69922c-1.15234,-0.89453 -2.62891,-1.19531 -4.03906,-0.82812l-13.41016,3.47656c-0.26172,-0.78125 -0.71875,-1.49609 -1.32812,-2.0625c-1.01562,-0.94531 -2.38281,-1.42969 -3.76562,-1.32812l-2.19141,0.15625c-0.85937,0.0625 -1.71484,-0.09766 -2.49219,-0.46484l-9.41016,-4.44141c-1.65234,-0.77734 -3.44141,-1.19922 -5.25,-1.23828zM20.25,37.32422c1.53125,0.03125 3.04688,0.38672 4.44141,1.04688l9.41406,4.44141c1.08594,0.51172 2.28906,0.73828 3.48828,0.65234l2.19141,-0.15625c0.83984,-0.05859 1.64453,0.22266 2.26172,0.79688c0.61328,0.57031 0.95313,1.35156 0.95313,2.19141v0.40625c0,0.39453 -0.23047,0.75391 -0.58984,0.91406l-2.95312,1.32422c-2.21484,0.99609 -4.77734,1.05078 -7.03125,0.14844l-5.04297,-2.01953c-0.51562,-0.20703 -1.09766,0.04688 -1.30078,0.55859c-0.20703,0.51172 0.04297,1.09375 0.55859,1.29688l5.04297,2.02344c2.75781,1.10156 5.89063,1.03516 8.59766,-0.18359l2.94922,-1.32422c1.07422,-0.48437 1.76953,-1.55859 1.76953,-2.73828l13.64453,-3.54297c0.8125,-0.20703 1.65234,-0.03516 2.3125,0.47656c0.66406,0.51172 1.04297,1.28516 1.04297,2.12891c0,1.00391 -0.55469,1.91406 -1.44531,2.375l-21.30469,11.04688c-2.03125,1.05469 -4.45703,1.04688 -6.48437,-0.01953l-12.58594,-6.62891c-1.30469,-0.6875 -2.74219,-1.03906 -4.19141,-1.03906c-0.73047,0 -1.46094,0.08984 -2.17969,0.26953l-6.56641,1.64063c-0.30078,0.07813 -0.61328,0.01172 -0.85547,-0.17969c-0.24609,-0.19141 -0.38672,-0.48047 -0.38672,-0.79297v-12.65625c0,-0.50781 0.37891,-0.9375 0.88281,-0.99609l11.83203,-1.39062c0.51172,-0.05859 1.02344,-0.08203 1.53516,-0.07031zM9,40c-0.55078,0 -1,0.44922 -1,1c0,0.55078 0.44922,1 1,1h2c0.55078,0 1,-0.44922 1,-1c0,-0.55078 -0.44922,-1 -1,-1zM9,45c-0.55078,0 -1,0.44922 -1,1c0,0.55078 0.44922,1 1,1h2c0.55078,0 1,-0.44922 1,-1c0,-0.55078 -0.44922,-1 -1,-1zM9,50c-0.55078,0 -1,0.44922 -1,1c0,0.55078 0.44922,1 1,1h2c0.55078,0 1,-0.44922 1,-1c0,-0.55078 -0.44922,-1 -1,-1z"></path></g></g></svg>