<svg xmlns="http://www.w3.org/2000/svg" xmlns:xlink="http://www.w3.org/1999/xlink"
    viewBox="0 0 500 500"  height="700" width="700">
    <defs>
        <style>
            .cls-1{fill:url(#linear-gradient);}.cls-2{fill:url(#linear-gradient-2);}.cls-3{fill:url(#linear-gradient-3);}</style>
        <linearGradient id="linear-gradient" x1="231.71" y1="463.42" x2="231.71"
            gradientUnits="userSpaceOnUse">
            <stop offset="0" stop-color="#3f0073" />
            <stop offset="1" stop-color="#6102bc" />
        </linearGradient>
        <linearGradient id="linear-gradient-2" x1="169.73" y1="231.71" x2="169.73"
            gradientUnits="userSpaceOnUse">
            <stop offset="0" stop-color="#004fff" />
            <stop offset="1" stop-color="#00a4ff" />
        </linearGradient>
        <linearGradient id="linear-gradient-3" x1="293.69" y1="463.41" x2="293.69" y2="231.71"
            xlink:href="#linear-gradient-2" />
    </defs>
    <title>Asset 2</title>
    <g id="Layer_2" data-name="Layer 2">
        <g id="Layer_1-2" data-name="Layer 1">
            <path class="cls-1"
                d="M142.15,397.47a72,72,0,0,1-51,21.21l-34.62.12h0a11.88,11.88,0,0,1-11.89-11.93l.11-34.62a72,72,0,0,1,21.22-51l58-58,31.55-31.55,76.2-76.2L200.16,124,124,200.16,92.41,231.71l-58,58A117,117,0,0,0,.12,372.1L0,406.73a56.51,56.51,0,0,0,56.5,56.69h.2l34.62-.12A117,117,0,0,0,173.7,429l58-58-31.55-31.55ZM446.86,16.55A56.09,56.09,0,0,0,406.92,0h-.2L372.1.12A117,117,0,0,0,289.72,34.4l-58,58L263.26,124l58-58a72,72,0,0,1,51-21.22l34.62-.11h0A11.88,11.88,0,0,1,418.8,56.55l-.12,34.62a72,72,0,0,1-21.22,51l-58,58-31.55,31.55-76.2,76.2,31.54,31.55,76.21-76.2L371,231.71l58-58A117,117,0,0,0,463.3,91.32l.11-34.62A56.09,56.09,0,0,0,446.86,16.55Z" />
            <path class="cls-2"
                d="M66,142.15a72,72,0,0,1-21.22-51l-.11-34.62A11.88,11.88,0,0,1,56.51,44.62h0l34.63.11a72,72,0,0,1,51,21.22l58,58,31.55,31.55,76.2,76.2,31.55-31.55L263.26,124,231.71,92.41l-58-58A117,117,0,0,0,91.32.12L56.69,0H56.5A56.51,56.51,0,0,0,0,56.7L.11,91.32A117.11,117.11,0,0,0,34.4,173.7l58,58L124,200.16Z" />
            <path class="cls-3"
                d="M463.3,372.1A117,117,0,0,0,429,289.72l-58-58-31.55,31.55,58,58a71.94,71.94,0,0,1,21.21,51l.12,34.62a11.88,11.88,0,0,1-11.89,11.93h0l-34.62-.12a72,72,0,0,1-51-21.21l-58-58-31.54-31.55-76.2-76.2L124,263.26l76.2,76.2L231.71,371l58,58A117,117,0,0,0,372.1,463.3l34.62.11h.2a56.47,56.47,0,0,0,56.49-56.69Z" />
        </g>
    </g>
</svg>