<svg xmlns="http://www.w3.org/2000/svg" xmlns:xlink="http://www.w3.org/1999/xlink" viewBox="0,0,256,256" width="128px" height="128px" fill-rule="nonzero"><g fill="#ffffff" fill-rule="nonzero" stroke="none" stroke-width="1" stroke-linecap="butt" stroke-linejoin="miter" stroke-miterlimit="10" stroke-dasharray="" stroke-dashoffset="0" font-family="none" font-weight="none" font-size="none" text-anchor="none" style="mix-blend-mode: normal"><g transform="scale(4,4)"><path d="M31,0c-0.55469,0 -1,0.44922 -1,1v5.02344c-12.98828,0.51563 -23.46094,10.98828 -23.97656,23.97656h-5.02344c-0.55469,0 -1,0.44922 -1,1c0,0.55078 0.44531,1 1,1h5.02344c0.51563,12.98828 10.98828,23.46094 23.97656,23.97266v5.02734c0,0.55078 0.44531,1 1,1c0.55469,0 1,-0.44922 1,-1v-5.02734c12.98828,-0.51172 23.46094,-10.98437 23.97266,-23.97266h5.02734c0.55469,0 1,-0.44922 1,-1c0,-0.55078 -0.44531,-1 -1,-1h-5.02734c-0.51172,-12.98828 -10.98437,-23.46094 -23.97266,-23.97656v-5.02344c0,-0.55078 -0.44531,-1 -1,-1zM30,8.02344v7.97656c0,0.55078 0.44531,1 1,1c0.55469,0 1,-0.44922 1,-1v-7.97656c11.88672,0.51563 21.46094,10.08984 21.97266,21.97656h-7.97266c-0.55469,0 -1,0.44922 -1,1c0,0.55078 0.44531,1 1,1h7.97266c-0.51172,11.88672 -10.08594,21.46094 -21.97266,21.97266v-7.97266c0,-0.55078 -0.44531,-1 -1,-1c-0.55469,0 -1,0.44922 -1,1v7.97266c-11.88672,-0.51172 -21.46094,-10.08594 -21.97656,-21.97266h7.97656c0.55469,0 1,-0.44922 1,-1c0,-0.55078 -0.44531,-1 -1,-1h-7.97656c0.51563,-11.88672 10.08984,-21.46094 21.97656,-21.97656zM27.21875,12.45313c-0.125,-0.02344 -0.26172,-0.02344 -0.39453,0.00781c-7.0625,1.58594 -12.6875,7.16016 -14.32812,14.21094c-0.125,0.53906 0.20703,1.07813 0.74609,1.20313c0.07422,0.01563 0.15234,0.02344 0.22656,0.02344c0.45703,0 0.86719,-0.30859 0.97266,-0.77344c1.47266,-6.30469 6.50391,-11.29297 12.82031,-12.71484c0.53906,-0.11719 0.87891,-0.65234 0.75781,-1.19141c-0.08984,-0.40234 -0.41406,-0.69531 -0.80078,-0.76562zM34.78516,12.45313c-0.38281,0.07031 -0.70703,0.36328 -0.80078,0.76563c-0.12109,0.53906 0.21875,1.07422 0.75781,1.19141c0.83594,0.19141 1.66406,0.44531 2.46094,0.75781c0.11719,0.04688 0.24219,0.06641 0.36328,0.06641c0.39844,0 0.77344,-0.23828 0.92969,-0.63281c0.20313,-0.51562 -0.05078,-1.09375 -0.5625,-1.29687c-0.89453,-0.34766 -1.81641,-0.63281 -2.75391,-0.83984c-0.13281,-0.03125 -0.26562,-0.03516 -0.39453,-0.01172zM41.20313,15.30078c-0.25391,0.04297 -0.48828,0.18359 -0.64844,0.40625c-0.32031,0.45313 -0.21094,1.07813 0.23828,1.39844c3.41797,2.41016 5.82031,5.97266 6.76563,10.01953c0.10547,0.46484 0.51563,0.77344 0.97266,0.77344c0.07422,0 0.14844,-0.00781 0.22656,-0.02344c0.53906,-0.125 0.875,-0.66406 0.74609,-1.20312c-1.05469,-4.52734 -3.73828,-8.50781 -7.55469,-11.20312c-0.22656,-0.16016 -0.49609,-0.21094 -0.74609,-0.16797zM31,29c-1.10547,0 -2,0.89453 -2,2c0,1.10547 0.89453,2 2,2c1.10547,0 2,-0.89453 2,-2c0,-1.10547 -0.89453,-2 -2,-2zM48.4375,33.64453c-0.37891,0.07813 -0.69922,0.37891 -0.78125,0.78125c-1.33984,6.53516 -6.40625,11.69922 -12.91406,13.16406c-0.53906,0.11719 -0.87891,0.65234 -0.75781,1.19141c0.10547,0.46484 0.51953,0.78125 0.97656,0.78125c0.07031,0 0.14453,-0.00781 0.21875,-0.02344c7.27344,-1.63281 12.94141,-7.40625 14.43359,-14.71094c0.11328,-0.54297 -0.23828,-1.07031 -0.77734,-1.17969c-0.13281,-0.02734 -0.26953,-0.02734 -0.39844,-0.00391zM16.36328,36.50781c-0.12891,0.00391 -0.26172,0.03125 -0.38672,0.08594l-1.82422,0.8125c-0.50781,0.22656 -0.73437,0.81641 -0.50781,1.32031c0.16406,0.37109 0.53125,0.59375 0.91406,0.59375c0.13672,0 0.27344,-0.02734 0.40625,-0.08594l1.82422,-0.8125c0.50391,-0.22656 0.73438,-0.81641 0.50781,-1.32031c-0.16797,-0.37891 -0.54297,-0.60156 -0.93359,-0.59375zM19.87109,41.51172c-0.25781,0.00391 -0.51172,0.10547 -0.70312,0.30078l-1.39062,1.44141c-0.38672,0.39844 -0.375,1.03125 0.02344,1.41406c0.19141,0.1875 0.44531,0.28125 0.69531,0.28125c0.26172,0 0.52344,-0.10547 0.71875,-0.30859l1.39063,-1.4375c0.38281,-0.39844 0.37109,-1.03125 -0.02734,-1.41406c-0.19531,-0.19141 -0.45312,-0.28516 -0.70703,-0.27734zM24.99219,44.83594c-0.39062,0.00781 -0.75781,0.24219 -0.91406,0.625l-0.75,1.85156c-0.20312,0.51563 0.04297,1.09766 0.55469,1.30469c0.12109,0.05078 0.25,0.07031 0.375,0.07031c0.39453,0 0.76953,-0.23437 0.92578,-0.625l0.75,-1.85156c0.20703,-0.51172 -0.03906,-1.09766 -0.55469,-1.30469c-0.125,-0.05078 -0.25781,-0.07422 -0.38672,-0.07031z"></path></g></g></svg>