<svg xmlns="http://www.w3.org/2000/svg" xmlns:xlink="http://www.w3.org/1999/xlink" viewBox="0,0,256,256" width="128px" height="128px" fill-rule="nonzero"><g fill="#ffffff" fill-rule="nonzero" stroke="none" stroke-width="1" stroke-linecap="butt" stroke-linejoin="miter" stroke-miterlimit="10" stroke-dasharray="" stroke-dashoffset="0" font-family="none" font-weight="none" font-size="none" text-anchor="none" style="mix-blend-mode: normal"><g transform="scale(4,4)"><path d="M32,3.07422c-0.29901,0 -0.59728,0.109 -0.81836,0.33008l-5.88867,5.88867c-0.26124,0.25082 -0.36647,0.62327 -0.27512,0.97371c0.09136,0.35044 0.36503,0.62411 0.71547,0.71547c0.35044,0.09136 0.72289,-0.01388 0.97371,-0.27512l4.29297,-4.29297v12.58594c-0.0051,0.36064 0.18438,0.69608 0.49587,0.87789c0.3115,0.18181 0.69676,0.18181 1.00825,0c0.3115,-0.18181 0.50097,-0.51725 0.49587,-0.87789v-12.58594l4.29297,4.29297c0.25082,0.26124 0.62327,0.36647 0.97371,0.27512c0.35044,-0.09136 0.62411,-0.36503 0.71547,-0.71547c0.09136,-0.35044 -0.01388,-0.72289 -0.27512,-0.97371l-5.88867,-5.88867c-0.22108,-0.22108 -0.51935,-0.33008 -0.81836,-0.33008zM52,13.07422c-0.29901,0 -0.59728,0.109 -0.81836,0.33008l-5.88867,5.88867c-0.26124,0.25082 -0.36648,0.62327 -0.27512,0.97371c0.09136,0.35044 0.36503,0.62411 0.71547,0.71547c0.35044,0.09136 0.72289,-0.01388 0.97371,-0.27512l4.29297,-4.29297v12.58594c-0.0051,0.36064 0.18438,0.69608 0.49587,0.87789c0.3115,0.18181 0.69676,0.18181 1.00825,0c0.3115,-0.18181 0.50097,-0.51725 0.49587,-0.87789v-12.58594l4.29297,4.29297c0.25082,0.26124 0.62327,0.36648 0.97371,0.27512c0.35044,-0.09136 0.62411,-0.36503 0.71547,-0.71547c0.09136,-0.35044 -0.01388,-0.72289 -0.27512,-0.97371l-5.88867,-5.88867c-0.22108,-0.22108 -0.51935,-0.33008 -0.81836,-0.33008zM12,20.07422c-0.29901,0 -0.59728,0.109 -0.81836,0.33008l-5.88867,5.88867c-0.26124,0.25082 -0.36647,0.62327 -0.27511,0.97371c0.09136,0.35044 0.36503,0.62411 0.71547,0.71547c0.35044,0.09136 0.72289,-0.01388 0.97371,-0.27511l4.29297,-4.29297v12.58594c-0.0051,0.36064 0.18438,0.69608 0.49587,0.87789c0.3115,0.18181 0.69676,0.18181 1.00825,0c0.3115,-0.18181 0.50097,-0.51725 0.49587,-0.87789v-12.58594l4.29297,4.29297c0.25082,0.26124 0.62327,0.36648 0.97371,0.27512c0.35044,-0.09136 0.62411,-0.36503 0.71547,-0.71547c0.09136,-0.35044 -0.01388,-0.72289 -0.27512,-0.97371l-5.88867,-5.88867c-0.22108,-0.22108 -0.51935,-0.33008 -0.81836,-0.33008zM25,23c-0.55226,0.00006 -0.99994,0.44774 -1,1v35c0.00006,0.55226 0.44774,0.99994 1,1h14c0.55226,-0.00006 0.99994,-0.44774 1,-1v-35c-0.00006,-0.55226 -0.44774,-0.99994 -1,-1zM26,25h12v33h-12zM45,33c-0.55226,0.00006 -0.99994,0.44774 -1,1v25c0.00006,0.55226 0.44774,0.99994 1,1h14c0.55226,-0.00006 0.99994,-0.44774 1,-1v-25c-0.00006,-0.55226 -0.44774,-0.99994 -1,-1zM46,35h12v23h-12zM53,38c-0.553,0 -1,0.447 -1,1c0,0.553 0.447,1 1,1h2c0.553,0 1,-0.447 1,-1c0,-0.553 -0.447,-1 -1,-1zM5,40c-0.55226,0.00006 -0.99994,0.44774 -1,1v18c0.00006,0.55226 0.44774,0.99994 1,1h14c0.55226,-0.00006 0.99994,-0.44774 1,-1v-18c-0.00006,-0.55226 -0.44774,-0.99994 -1,-1zM6,42h12v16h-12zM53,43c-0.553,0 -1,0.447 -1,1c0,0.553 0.447,1 1,1h2c0.553,0 1,-0.447 1,-1c0,-0.553 -0.447,-1 -1,-1zM13,44c-0.553,0 -1,0.447 -1,1c0,0.553 0.447,1 1,1h2c0.553,0 1,-0.447 1,-1c0,-0.553 -0.447,-1 -1,-1zM53,48c-0.553,0 -1,0.447 -1,1c0,0.553 0.447,1 1,1h2c0.553,0 1,-0.447 1,-1c0,-0.553 -0.447,-1 -1,-1zM13,49c-0.553,0 -1,0.447 -1,1c0,0.553 0.447,1 1,1h2c0.553,0 1,-0.447 1,-1c0,-0.553 -0.447,-1 -1,-1zM53,53c-0.553,0 -1,0.447 -1,1c0,0.553 0.447,1 1,1h2c0.553,0 1,-0.447 1,-1c0,-0.553 -0.447,-1 -1,-1zM13,54c-0.553,0 -1,0.447 -1,1c0,0.553 0.447,1 1,1h2c0.553,0 1,-0.447 1,-1c0,-0.553 -0.447,-1 -1,-1z"></path></g></g></svg>