<svg xmlns="http://www.w3.org/2000/svg" xmlns:xlink="http://www.w3.org/1999/xlink" viewBox="0,0,256,256" width="128px" height="128px" fill-rule="nonzero"><g fill="#ffffff" fill-rule="nonzero" stroke="none" stroke-width="1" stroke-linecap="butt" stroke-linejoin="miter" stroke-miterlimit="10" stroke-dasharray="" stroke-dashoffset="0" font-family="none" font-weight="none" font-size="none" text-anchor="none" style="mix-blend-mode: normal"><g transform="scale(4,4)"><path d="M34.96875,4c-7.152,0 -12.96875,5.81675 -12.96875,12.96875c0,3.406 1.76717,5.87955 3.32617,8.06055c1.375,1.922 2.67383,3.73856 2.67383,5.97656v1v0.99414c0,3.859 3.14,7 7,7c3.86,0 7,-3.141 7,-7v-1v-1c0,-2.237 1.28548,-4.05261 2.64648,-5.97461c1.543,-2.181 3.29297,-4.65064 3.29297,-8.05664c-0.001,-7.151 -5.8187,-12.96875 -12.9707,-12.96875zM34.96875,6c6.048,0 10.96875,4.92075 10.96875,10.96875c0,2.769 -1.41983,4.77539 -2.92383,6.90039c-1.305,1.843 -2.64817,3.74186 -2.95117,6.13086h-10.12695c-0.307,-2.393 -1.66442,-4.29177 -2.98242,-6.13477c-1.518,-2.124 -2.95312,-4.13148 -2.95312,-6.89648c0,-6.048 4.92075,-10.96875 10.96875,-10.96875zM31,16c-0.25575,0 -0.51153,0.09747 -0.70703,0.29297c-0.391,0.391 -0.391,1.02306 0,1.41406l2,2c0.195,0.195 0.45103,0.29297 0.70703,0.29297c0.256,0 0.51203,-0.09797 0.70703,-0.29297c0.391,-0.391 0.391,-1.02306 0,-1.41406l-2,-2c-0.1955,-0.1955 -0.45128,-0.29297 -0.70703,-0.29297zM39,16c-0.25575,0 -0.51153,0.09747 -0.70703,0.29297l-4,4c-0.188,0.187 -0.29297,0.44103 -0.29297,0.70703v6c0,0.553 0.448,1 1,1c0.552,0 1,-0.447 1,-1v-5.58594l3.70703,-3.70703c0.391,-0.391 0.391,-1.02306 0,-1.41406c-0.1955,-0.1955 -0.45128,-0.29297 -0.70703,-0.29297zM40,32v1c0,2.757 -2.243,5 -5,5c-2.757,0 -5,-2.243 -5,-5v-0.99414zM20.29492,37.32422c-0.60358,-0.01353 -1.20995,0.01444 -1.81445,0.08594l-11.83203,1.38867c-1.51,0.179 -2.64844,1.45952 -2.64844,2.97852v12.66211c0,0.93 0.41934,1.79128 1.15234,2.36328c0.733,0.573 1.67222,0.77587 2.57422,0.54688l6.5625,-1.63867c1.672,-0.418 3.43399,-0.2063 4.95899,0.5957l12.58789,6.62891c1.312,0.691 2.75136,1.03711 4.19336,1.03711c1.422,0 2.84358,-0.33577 4.14258,-1.00977l21.30273,-11.04492c1.558,-0.809 2.52539,-2.40011 2.52539,-4.16211c0,-1.458 -0.66145,-2.80817 -1.81445,-3.70117c-1.154,-0.893 -2.62706,-1.19313 -4.03906,-0.82813l-13.41016,3.47656c-0.263,-0.781 -0.71708,-1.49445 -1.33008,-2.06445c-1.013,-0.942 -2.38663,-1.42717 -3.76562,-1.32617l-2.19141,0.1582c-0.856,0.057 -1.71619,-0.0998 -2.49219,-0.4668l-9.41016,-4.43945c-1.65225,-0.78 -3.44122,-1.19964 -5.25195,-1.24023zM20.25,39.32031c1.5323,0.03464 3.04536,0.39078 4.44336,1.05078l9.41016,4.43945c1.085,0.513 2.29323,0.74334 3.49023,0.65234l2.19141,-0.1582c0.841,-0.052 1.64277,0.22387 2.25977,0.79687c0.617,0.575 0.95508,1.35427 0.95508,2.19727v0.40625c0,0.394 -0.23084,0.75111 -0.58984,0.91211l-2.94922,1.32617c-2.216,0.994 -4.7802,1.04848 -7.0332,0.14648l-5.04492,-2.01953c-0.516,-0.206 -1.09578,0.04459 -1.30078,0.55859c-0.206,0.513 0.04559,1.09578 0.55859,1.30078l5.04297,2.01758c2.753,1.103 5.8867,1.03726 8.5957,-0.17773l2.94922,-1.32617c1.076,-0.483 1.77148,-1.55828 1.77148,-2.73828l13.64648,-3.54492c0.808,-0.207 1.65345,-0.03544 2.31445,0.47656c0.661,0.512 1.03906,1.28495 1.03906,2.12695c0,1.005 -0.55331,1.91591 -1.44531,2.37891l-21.30273,11.04492c-2.035,1.053 -4.45838,1.04747 -6.48437,-0.01953l-12.58789,-6.63086c-1.304,-0.687 -2.74045,-1.03516 -4.18945,-1.03516c-0.73,0 -1.46259,0.08853 -2.18359,0.26953l-6.5625,1.63867c-0.299,0.076 -0.61437,0.00841 -0.85937,-0.18359c-0.245,-0.191 -0.38477,-0.47711 -0.38477,-0.78711v-12.66211c0,-0.507 0.37981,-0.93319 0.88281,-0.99219l11.83203,-1.39062c0.51175,-0.06025 1.02439,-0.08577 1.53516,-0.07422zM9,42c-0.552,0 -1,0.447 -1,1c0,0.553 0.448,1 1,1h2c0.552,0 1,-0.447 1,-1c0,-0.553 -0.448,-1 -1,-1zM9,47c-0.552,0 -1,0.447 -1,1c0,0.553 0.448,1 1,1h2c0.552,0 1,-0.447 1,-1c0,-0.553 -0.448,-1 -1,-1zM9,52c-0.552,0 -1,0.447 -1,1c0,0.553 0.448,1 1,1h2c0.552,0 1,-0.447 1,-1c0,-0.553 -0.448,-1 -1,-1z"></path></g></g></svg>